<svg xmlns="http://www.w3.org/2000/svg" viewBox="0 0 100 18.61957746496765"  xmlns:xlink="http://www.w3.org/1999/xlink" version="1.1" ><g transform="translate(-5.5012866260755935 -46.191497893591766) scale(1.1100256901773922)" id="containerlessSvgTemplate"><g fill="#161925"><path d="M36.763 50.668H12.291a.668.668 0 1 1 0-1.336h24.472a.668.668 0 1 1 0 1.336zM86.966 50.668H62.493a.668.668 0 1 1 0-1.336h24.473a.668.668 0 1 1 0 1.336z"></path><path d="M44.481 58.387c-4.624 0-8.386-3.763-8.386-8.387s3.762-8.387 8.386-8.387a.669.669 0 0 1 0 1.337c-3.888 0-7.05 3.162-7.05 7.05s3.163 7.05 7.05 7.05a.669.669 0 0 1 0 1.337zM54.774 58.387a.669.669 0 0 1 0-1.337c3.888 0 7.051-3.162 7.051-7.05s-3.163-7.05-7.051-7.05a.669.669 0 0 1 0-1.337c4.625 0 8.387 3.763 8.387 8.387s-3.762 8.387-8.387 8.387zM90.912 54.132a4.136 4.136 0 0 1-4.132-4.131c0-2.279 1.854-4.134 4.132-4.134s4.132 1.854 4.132 4.134a4.136 4.136 0 0 1-4.132 4.131zm0-7.149a3.02 3.02 0 0 0-3.017 3.018c0 1.662 1.353 3.015 3.017 3.015s3.017-1.353 3.017-3.015a3.02 3.02 0 0 0-3.017-3.018zM12.291 50.001c0 1.974-1.601 3.572-3.575 3.572a3.573 3.573 0 1 1 0-7.147 3.574 3.574 0 0 1 3.575 3.575z"></path><path d="M8.716 53.76a3.764 3.764 0 0 1-3.76-3.759 3.766 3.766 0 0 1 3.76-3.762 3.766 3.766 0 0 1 3.761 3.762 3.765 3.765 0 0 1-3.761 3.759zm0-7.149a3.393 3.393 0 0 0-3.388 3.39 3.392 3.392 0 0 0 3.388 3.387 3.392 3.392 0 0 0 3.389-3.387 3.395 3.395 0 0 0-3.389-3.39z"></path><g><circle cx="49.315" cy="50.313" r="3.797"></circle></g></g></g></svg>