<svg xmlns="http://www.w3.org/2000/svg" viewBox="0 0 100 17.803174603174604"  xmlns:xlink="http://www.w3.org/1999/xlink" version="1.1" ><g transform="translate(49.99999999999999 0) scale(0.17803174603174604)" id="logotypeSvgTemplate"><g fill="#161925"><g transform="translate(-282.98858773181166 100) scale(1.9812965604691708)" fill="#161925"><g id="line1" fill="#161925"><path d="M1.080 0L13.536 0L13.536-17.352L19.728-17.352C29.808-17.352 35.640-23.472 35.640-34.128C35.640-44.424 29.232-50.472 18.792-50.472L6.048-50.472L6.048-27.216L17.712-27.216C22.824-27.216 25.344-29.520 25.344-34.128C25.344-38.088 23.112-40.392 19.152-40.392L11.016-40.392L11.016-31.968L13.680-32.040L13.680-37.872L19.152-37.872C21.672-37.872 22.896-36.648 22.896-34.128C22.896-31.032 21.456-29.880 17.712-29.880L8.496-29.880L8.496-47.808L18.792-47.808C28.080-47.808 33.120-43.056 33.120-34.128C33.120-28.584 31.320-24.336 27.864-22.248C25.632-20.736 22.968-20.016 19.728-20.016L10.872-20.016L10.872-2.664L3.744-2.664L3.744-50.472L1.080-50.472ZM6.048-4.320L8.496-4.320L8.496-22.320L18.144-22.320C26.496-22.320 30.672-26.280 30.672-33.768C30.672-38.592 28.944-42.192 25.560-43.992C23.904-44.928 22.032-45.360 20.016-45.360L11.016-45.360L11.016-42.768L20.016-42.768C24.984-42.768 28.080-39.456 28.080-33.768C28.080-27.720 24.840-24.840 18.144-24.840L6.048-24.840Z"></path><path d="M49.428-12.888L71.748-12.888L76.356-2.592L83.988-2.592L63.972-47.952L62.244-47.952L42.300-2.592L50.868-2.592L53.172-8.280L68.004-8.280L69.084-5.832L54.756-5.832L52.308-0.072L38.268-0.072L60.804-50.400L65.412-50.400L88.092-0.072L74.844 0L70.236-10.440L51.444-10.512L48.924-4.464L45.756-4.464ZM67.212-17.136L63.108-25.776L60.444-19.224L57.636-19.224L63.108-32.400L71.028-14.904L50.148-14.904L63.108-43.992L80.820-4.536L77.868-4.536L63.108-38.088L54.324-17.136Z"></path><path d="M109.512-4.752L112.104-4.752L112.104-38.448L129.312-38.448L129.312-50.472L93.528-50.472L93.528-43.056L124.272-43.056L124.272-45.648L96.120-45.648L96.120-47.880L126.720-47.880L126.720-41.040L109.512-41.040ZM104.688 0L117.072 0L117.072-36.216L114.480-36.216L114.480-2.664L107.280-2.664L107.280-41.040L93.528-41.040L93.528-38.448L104.688-38.448Z"></path><path d="M144.684-12.888L167.004-12.888L171.612-2.592L179.244-2.592L159.228-47.952L157.500-47.952L137.556-2.592L146.124-2.592L148.428-8.280L163.260-8.280L164.340-5.832L150.012-5.832L147.564-0.072L133.524-0.072L156.060-50.400L160.668-50.400L183.348-0.072L170.100 0L165.492-10.440L146.700-10.512L144.180-4.464L141.012-4.464ZM162.468-17.136L158.364-25.776L155.700-19.224L152.892-19.224L158.364-32.400L166.284-14.904L145.404-14.904L158.364-43.992L176.076-4.536L173.124-4.536L158.364-38.088L149.580-17.136Z"></path><path d="M223.920-45.360L226.512-45.360L226.512-14.184L190.872-50.400L194.472-50.400L223.920-20.520ZM218.952-29.088L218.952-50.400L231.480-50.400L231.480 0L226.872 0L196.992-29.952L196.992-2.592L199.296-2.592L199.296-23.976L201.960-21.240L201.960 0L194.400 0L194.400-36.288L227.376-2.880L227.664-2.592L228.888-2.592L228.888-47.880L221.544-47.880L221.544-26.280ZM189.504 0L189.504-48.312L226.512-10.944L226.512-7.128L192.024-42.120L192.024 0Z"></path><path d="M245.916-12.888L268.236-12.888L272.844-2.592L280.476-2.592L260.460-47.952L258.732-47.952L238.788-2.592L247.356-2.592L249.660-8.280L264.492-8.280L265.572-5.832L251.244-5.832L248.796-0.072L234.756-0.072L257.292-50.400L261.900-50.400L284.580-0.072L271.332 0L266.724-10.440L247.932-10.512L245.412-4.464L242.244-4.464ZM263.700-17.136L259.596-25.776L256.932-19.224L254.124-19.224L259.596-32.400L267.516-14.904L246.636-14.904L259.596-43.992L277.308-4.536L274.356-4.536L259.596-38.088L250.812-17.136Z"></path></g></g></g></g></svg>